<svg xmlns="http://www.w3.org/2000/svg" viewBox="0 0 400 400" width="100%" height="100%">
  <path d="M 120 230 L 70 230 L 70 130 L 150 130 L 150 50 L 250 50 L 250 130 L 330 130 L 330 230 L 250 230 L 250 310 L 150 310 L 150 260" fill="none" stroke="#0088ce" stroke-width="16" stroke-linejoin="miter" stroke-linecap="butt" />
  
  <path d="M 115 238 C 130 140, 190 125, 260 100 C 245 170, 200 215, 150 235 C 185 215, 230 170, 240 125 C 180 140, 130 170, 125 238 Z" fill="#00a68c" />
  
  <path d="M 142 265 C 145 185, 175 160, 230 155 C 190 170, 158 205, 158 265 Z" fill="#0088ce" />

  <text x="200" y="365" font-family="'Segoe UI', Roboto, Helvetica, Arial, sans-serif" font-size="40" font-weight="bold" text-anchor="middle" letter-spacing="-0.5">
    <tspan fill="#0088ce">clinic</tspan><tspan fill="#00a68c">booking</tspan>
  </text>
</svg>
